<svg xmlns="http://www.w3.org/2000/svg" width="80" height="80" viewBox="0 0 80 80">
  <g id="Gruppe_294" data-name="Gruppe 294" transform="translate(9282 18691)">
    <circle id="Ellipse_39" data-name="Ellipse 39" cx="40" cy="40" r="40" transform="translate(-9282 -18691)" fill="#9fb2a1"></circle>
    <path id="Pfad_187" data-name="Pfad 187" d="M2157.048,2046.713c1.856-.076,2.371-1.976,3.415-3.243a.51.51,0,0,0,.107-.434c-.572-2.644.881-5.041,1.329-7.706a.507.507,0,0,1,.89-.238l.009.01c.4.475.857,1.287,1.271,1.276.554-.014,1.155-.616,1.619-1.081a5.1,5.1,0,0,0,.884-1.42,1.94,1.94,0,0,1,1.8-1.073,2.736,2.736,0,0,0,1.982-1.148,1.756,1.756,0,0,0-1.237-2.287c-.9-.321-1.185-.778-.7-1.73a2.265,2.265,0,0,0,.066-1.175.506.506,0,0,1,.463-.551l.131-.011a.507.507,0,0,1,.54.575c-.2,1.432.241,1.753,1.882,1.787,1.837.037,2.289.459,2.376,2.216.073,1.485.8,1.941,2.213,1.452a5.264,5.264,0,0,1,1.282-.109c.344-.027.783.063,1.015-.114a37.391,37.391,0,0,0,3.62-2.989c.969-.957,1.642-.946,2.5.184a15.691,15.691,0,0,0,1.883,1.815.5.5,0,0,1,.165.4c-.049.667.518,1.187,1.479,1.554a1.871,1.871,0,0,1,.957,2.821c-.893,1.409-.975,2.359.522,3.611a4.942,4.942,0,0,1,1.128,3.646,6.3,6.3,0,0,0,1.616,4.878.509.509,0,0,1-.053.737c-.524.434-.992.824-1.472,1.2a9.3,9.3,0,0,1-1.229.861c-2.77,1.512-5.56,2.989-8.324,4.51-1.6.881-1.738,1.914-.254,2.856a3.348,3.348,0,0,1,1.729,2.967,3.046,3.046,0,0,0,1.589,2.586c1.328.92,2.6,1.917,3.937,2.931a.507.507,0,0,1,.026.786c-.832.724-1.554,1.368-2.311,1.972-1.181.941-1.995,1.97-1.556,3.147a.5.5,0,0,1-.347.667,23.721,23.721,0,0,0-2.629.717,11.047,11.047,0,0,0-2.274,1.242,1.816,1.816,0,0,1-2.459,0,1.834,1.834,0,0,0-2.525-.234.5.5,0,0,1-.37.129,23.742,23.742,0,0,1-2.863-.228c-.874-.169-1.7-.579-2.562-.814-1.4-.378-2.819-1.777-4.2.177-.164.232-.762.158-1.537.14a.507.507,0,0,1-.472-.656c.436-1.414.808-2.637,1.2-3.854a5.723,5.723,0,0,1,.492-.947c1.912-3.456,1.9-3.481-1.792-4.619-1.167-.359-2.348-.67-3.5-1.058-1.1-.368-1.776-.9-1.509-2.348a6.23,6.23,0,0,0-.664-2.6.507.507,0,0,1,.058-.433c1.19-1.828,1.2-1.941-.026-4.531a3.907,3.907,0,0,1-.089-3.609,6.234,6.234,0,0,0,.3-2.139A.5.5,0,0,1,2157.048,2046.713Z" transform="translate(-11416.13 -20703.592)" fill="#ffe800"></path>
  </g>
</svg>