<svg xmlns="http://www.w3.org/2000/svg" width="80" height="80" viewBox="0 0 80 80">
  <g id="Gruppe_292" data-name="Gruppe 292" transform="translate(9497 18689)">
    <circle id="Ellipse_39" data-name="Ellipse 39" cx="40" cy="40" r="40" transform="translate(-9497 -18689)" fill="#9fb2a1"></circle>
    <g id="Gruppe_268" data-name="Gruppe 268" transform="translate(462.639 -420.871)">
      <g id="Gruppe_262" data-name="Gruppe 262" transform="translate(-9942.855 -18245.568)">
        <path id="Pfad_90" data-name="Pfad 90" d="M1663.939,414.757h0l-3.48,0v-2.326h-9.286v2.337l-3.481,0a1.161,1.161,0,0,0-1.159,1.16l0,2.3a1.161,1.161,0,0,0,1.16,1.162h0l16.249-.019a1.161,1.161,0,0,0,1.16-1.159l0-2.3A1.161,1.161,0,0,0,1663.939,414.757Z" transform="translate(-1632.596 -382.253)" fill="#ffed01"></path>
        <path id="Pfad_91" data-name="Pfad 91" d="M1543.991,135.2a2.352,2.352,0,0,0-2.332,1.94c-.646,3.8-1.186,6.989-1.64,9.658h12.255l1.231-11.6Z" transform="translate(-1537.684 -135.199)" fill="#ffed01"></path>
        <path id="Pfad_92" data-name="Pfad 92" d="M1827.1,274.727h-12.477l.849,8.012h0l.5,4.657h10.492a2.345,2.345,0,0,0,2.365-2.307C1828.822,284.863,1828.966,285.717,1827.1,274.727Z" transform="translate(-1782.391 -259.537)" fill="#ffed01"></path>
        <path id="Pfad_93" data-name="Pfad 93" d="M1813.306,146.8c-.453-2.669-.994-5.854-1.64-9.658h0a2.352,2.352,0,0,0-2.333-1.94h-9.505l1.229,11.6Z" transform="translate(-1769.21 -135.199)" fill="#ffed01"></path>
        <path id="Pfad_94" data-name="Pfad 94" d="M1682.911,282.754h0l-.85-8.027h-10.8l-.851,8.027h0l-.493,4.643H1683.4Z" transform="translate(-1653.443 -259.537)" fill="#ffed01"></path>
        <path id="Pfad_95" data-name="Pfad 95" d="M1695.074,139.847h0l-.493-4.647h-7.572l-.493,4.643h0l-.738,6.954h10.033Z" transform="translate(-1667.574 -135.2)" fill="#ffed01"></path>
        <path id="Pfad_96" data-name="Pfad 96" d="M1531.924,282.754l.852-8.027h-12.483c-1.867,10.987-1.724,10.129-1.724,10.348a2.345,2.345,0,0,0,2.366,2.322h10.5l.493-4.643" transform="translate(-1518.567 -259.537)" fill="#ffed01"></path>
      </g>
    </g>
  </g>
</svg>