<svg id="Gruppe_281" data-name="Gruppe 281" xmlns="http://www.w3.org/2000/svg" width="670" height="570" viewBox="0 0 670 570">
  <rect id="Bild_4" data-name="Bild 4" width="670" height="570" fill="#9fb2a1"></rect>
  <g id="Gruppe_184" data-name="Gruppe 184" transform="translate(382.313 226.092)">
    <path id="Pfad_107" data-name="Pfad 107" d="M-10152.167-14252.908v48.648h-138.52" transform="translate(10290.687 14252.908)" fill="none" stroke="#ffed01" stroke-linecap="round" stroke-linejoin="round" stroke-width="10"></path>
  </g>
  <g id="Gruppe_222" data-name="Gruppe 222" transform="translate(0 -34)">
    <path id="Pfad_75" data-name="Pfad 75" d="M1241.375,1135.35h-215.61c-5.335-2.147-7.157-6.165-7.143-11.8q.166-67.29.062-134.582,0-28.92.013-57.839c.012-7.173,3.652-10.778,10.742-10.782q22.011-.012,44.021,0,82.118,0,164.235-.024c2.834,0,5.388.481,7.572,2.409,2.825,2.493,3.2,5.766,3.2,9.246q-.025,95.787.046,191.575C1248.522,1129.173,1246.713,1133.205,1241.375,1135.35ZM1133.56,940.833a75.634,75.634,0,1,0,75.664,75.665A75.8,75.8,0,0,0,1133.56,940.833Z" transform="translate(-901.514 -601.388)" fill="#ffed01"></path>
    <path id="Pfad_76" data-name="Pfad 76" d="M1133.278,844.848c-34.426,0-68.853-.125-103.276.1-7.358.048-11.541-4.4-11.386-11.41.244-11,.227-22.008.007-33.007-.143-7.166,4.672-11.132,11.1-11.117q103.841.243,207.684,0c6.372-.014,11.236,3.868,11.1,11.12q-.316,16.639,0,33.29c.127,6.959-4.345,11.156-11.1,11.117C1202.694,844.74,1167.986,844.848,1133.278,844.848Z" transform="translate(-901.508 -544.413)" fill="#ffed01"></path>
    <path id="Pfad_77" data-name="Pfad 77" d="M1219.183,1027.172c-15.619-.1-30.147,4.32-44.275,10.533-7.383,3.247-14.858,6.285-22.976,7.26-9.138,1.1-17.979-.336-26.6-3.251-2.407-.813-3.388-2.883-2.953-5.443,4.095-24.107,25.2-43.993,49.588-46.27,24.811-2.317,43.6,7.642,56.5,28.817,2.9,4.763.769,8.325-4.763,8.352C1222.193,1027.178,1220.689,1027.172,1219.183,1027.172Z" transform="translate(-946.568 -631.531)" fill="#ffed01"></path>
    <g id="Gruppe_221" data-name="Gruppe 221" transform="translate(0 -3.5)">
      <line id="Linie_92" data-name="Linie 92" x2="36" transform="translate(287.5 285.5)" fill="none" stroke="#9eb2a1" stroke-linecap="round" stroke-width="10"></line>
      <line id="Linie_93" data-name="Linie 93" x2="36" transform="translate(287.5 267.5)" fill="none" stroke="#9eb2a1" stroke-linecap="round" stroke-width="10"></line>
    </g>
    <circle id="Ellipse_26" data-name="Ellipse 26" cx="9" cy="9" r="9" transform="translate(140 264)" fill="#9eb2a1"></circle>
    <circle id="Ellipse_27" data-name="Ellipse 27" cx="9" cy="9" r="9" transform="translate(173 264)" fill="#9eb2a1"></circle>
    <circle id="Ellipse_28" data-name="Ellipse 28" cx="9" cy="9" r="9" transform="translate(206 264)" fill="#9eb2a1"></circle>
  </g>
  <path id="Pfad_147" data-name="Pfad 147" d="M22.015,0V21.041H0" transform="translate(521.178 247.94) rotate(-135)" fill="none" stroke="#ffed01" stroke-linecap="round" stroke-linejoin="round" stroke-width="10"></path>
  <path id="Pfad_163" data-name="Pfad 163" d="M2087.527,1751.21H2010.7a26.021,26.021,0,0,0-26.02,25.92c0,.035,0,.069,0,.1v69.39c0,.128.007.256.01.384a26.019,26.019,0,0,0,23.679,25.528c.769.066,1.544.107,2.334.107h76.824c.783,0,1.555-.042,2.32-.107a26.021,26.021,0,0,0,23.7-25.913v-69.39A26.021,26.021,0,0,0,2087.527,1751.21Zm-51.894,104.232-3.518-5.727-1.364,1.316v4.411h-3.518v-17.7h3.518v9.494l4.435-4.612h4.165l-4.833,4.709,5.377,8.105Zm16.855-50.953h6.89c.1,0,.208-.007.312,0a1,1,0,0,1,.862.571.811.811,0,0,1-.166.9q-1.413,1.859-2.818,3.722-7.51,9.9-15.02,19.8a4.98,4.98,0,0,1-.679.609h-.544c-.589-.37-.672-.627-.429-1.333l5.318-15.685c.042-.121.073-.243.125-.429H2038.7c-.821,0-1.15-.516-.8-1.26q4.882-10.273,9.771-20.546a.986.986,0,0,1,.98-.616q5.038.01,10.079,0c.893,0,1.25.627.793,1.409q-3.594,6.155-7.195,12.313c-.09.152-.173.308-.287.512C2052.218,1804.479,2052.353,1804.489,2052.488,1804.489Zm5.869,50.953h-3.864l-3-12.046h-.052l-2.947,12.046h-3.94l-4.685-17.7h3.892l2.8,12.046h.052l3.071-12.046h3.643l3.026,12.195h.049l2.9-12.195h3.819Zm18.191,0h-3.521v-7.236a4.48,4.48,0,0,0-.5-2.368,1.916,1.916,0,0,0-1.759-.779,2.431,2.431,0,0,0-2.081.855,4.744,4.744,0,0,0-.644,2.812v6.717h-3.521v-17.7h3.521v6.669h.073a4.086,4.086,0,0,1,1.71-1.624,4.614,4.614,0,0,1,2.032-.509,5.966,5.966,0,0,1,2.316.384,3.445,3.445,0,0,1,1.427,1.066,4.154,4.154,0,0,1,.731,1.658,10.5,10.5,0,0,1,.211,2.171Zm13.915-47.4c-.014,0-.028,0-.041,0H2079.8a3.635,3.635,0,1,1,0-7.271h7.185a37.245,37.245,0,0,0-7.5-16.066l-5.689,5.685a3.636,3.636,0,0,1-5.142-5.141l5.751-5.751a37.183,37.183,0,0,0-20.577-8.646v8.247a3.635,3.635,0,0,1-7.271,0v-8.22a37.153,37.153,0,0,0-19.441,7.929l6.44,6.44a3.636,3.636,0,1,1-5.141,5.141l-6.523-6.523a37.241,37.241,0,0,0-8.188,16.9h8.711a3.635,3.635,0,1,1,0,7.271h-10.626c-.014,0-.028,0-.041,0h-6.191a44.786,44.786,0,1,1,89.573,0Z" transform="translate(-1527.654 -1684.21)" fill="#ffed01"></path>
</svg>