<svg xmlns="http://www.w3.org/2000/svg" width="670" height="570" viewBox="0 0 670 570">
  <g id="Gruppe_282" data-name="Gruppe 282" transform="translate(6864 13314)">
    <rect id="Bild_24" data-name="Bild 24" width="670" height="570" transform="translate(-6864 -13314)" fill="#9fb2a1"></rect>
    <g id="Gruppe_233" data-name="Gruppe 233" transform="translate(635.169 -15.589)">
      <g id="JzlN5r" transform="translate(-7306.41 -12952.06)">
        <g id="Gruppe_120" data-name="Gruppe 120" transform="translate(0 0)">
          <path id="Pfad_78" data-name="Pfad 78" d="M329.68,922.7c-1.4-.886-1.6-1.5-1.027-3.189Q335,900.8,341.352,882.08c.1-.287.168-.583.294-1.028h-1.053q-8.594,0-17.187,0c-1.958,0-2.745-1.228-1.9-3.007q11.659-24.519,23.325-49.035a2.34,2.34,0,0,1,2.333-1.476c8.021.019,16.041.008,24.062.012,2.135,0,2.98,1.493,1.892,3.358q-8.58,14.7-17.173,29.388c-.215.367-.415.743-.685,1.227.424.02.746.049,1.068.05q8.222,0,16.444,0a7.278,7.278,0,0,1,.743.007,2.386,2.386,0,0,1,2.061,1.366,1.934,1.934,0,0,1-.4,2.147q-3.365,4.439-6.728,8.88-17.918,23.641-35.85,47.27a11.546,11.546,0,0,1-1.615,1.463Z" transform="translate(-321.17 -827.534)" fill="#ffed01"></path>
        </g>
      </g>
    </g>
    <path id="Pfad_165" data-name="Pfad 165" d="M-7292.5-13067.271v52.782" transform="translate(650.161 15.88)" fill="none" stroke="#ffed01" stroke-linecap="round" stroke-width="10" stroke-dasharray="8 0"></path>
    <path id="Pfad_166" data-name="Pfad 166" d="M-7292.5-13067.271v52.782" transform="translate(-19596.271 -5637.564) rotate(90)" fill="none" stroke="#ffed01" stroke-linecap="round" stroke-width="10" stroke-dasharray="8 0"></path>
    <g id="Gruppe_232" data-name="Gruppe 232" transform="translate(-10892.697 -15835.217)">
      <g id="Gruppe_205" data-name="Gruppe 205" transform="translate(4069.698 2561.062)">
        <path id="Pfad_133" data-name="Pfad 133" d="M4383.421,2826.064l-29.585.058s-7.585-.283-8.876,7.382c-.6,3.574-3.827,22.728-7.1,42.165a40.4,40.4,0,1,1,45.56-49.6Z" transform="translate(-4239.495 -2731.007)" fill="#ffed01"></path>
        <g id="Gruppe_196" data-name="Gruppe 196" transform="translate(96.663 0)">
          <g id="Gruppe_195" data-name="Gruppe 195">
            <line id="Linie_86" data-name="Linie 86" y2="51.505" transform="translate(8.046)" fill="none"></line>
            <rect id="Rechteck_98" data-name="Rechteck 98" width="16.092" height="51.505" rx="8.046" fill="#ffed01"></rect>
          </g>
        </g>
        <g id="Gruppe_199" data-name="Gruppe 199" transform="translate(24.715 25.551)">
          <g id="Gruppe_197" data-name="Gruppe 197" transform="translate(0 112.805)">
            <line id="Linie_87" data-name="Linie 87" y1="36.419" x2="36.419" transform="translate(5.689 5.689)" fill="none"></line>
            <rect id="Rechteck_99" data-name="Rechteck 99" width="51.505" height="16.091" rx="8.046" transform="translate(0 36.419) rotate(-45)" fill="#ffed01"></rect>
          </g>
          <g id="Gruppe_198" data-name="Gruppe 198" transform="translate(112.805 0)">
            <line id="Linie_88" data-name="Linie 88" y1="36.419" x2="36.419" transform="translate(5.689 5.689)" fill="none"></line>
            <rect id="Rechteck_100" data-name="Rechteck 100" width="51.505" height="16.091" rx="8.046" transform="translate(0 36.419) rotate(-45)" fill="#ffed01"></rect>
          </g>
        </g>
        <g id="Gruppe_201" data-name="Gruppe 201" transform="translate(25.216 25.049)">
          <g id="Gruppe_200" data-name="Gruppe 200" transform="translate(0 0)">
            <line id="Linie_89" data-name="Linie 89" x2="36.419" y2="36.419" transform="translate(5.689 5.689)" fill="none"></line>
            <rect id="Rechteck_101" data-name="Rechteck 101" width="16.092" height="51.504" rx="8.046" transform="matrix(0.707, -0.707, 0.707, 0.707, 0, 11.379)" fill="#ffed01"></rect>
          </g>
        </g>
        <g id="Gruppe_204" data-name="Gruppe 204" transform="translate(0 97.304)">
          <g id="Gruppe_202" data-name="Gruppe 202">
            <line id="Linie_90" data-name="Linie 90" x2="51.505" transform="translate(0 8.046)" fill="none"></line>
            <rect id="Rechteck_102" data-name="Rechteck 102" width="51.504" height="16.092" rx="8.046" transform="translate(0)" fill="#ffed01"></rect>
          </g>
          <g id="Gruppe_203" data-name="Gruppe 203" transform="translate(211.034 8.046)">
            <line id="Linie_91" data-name="Linie 91" x1="0.003" fill="none"></line>
          </g>
        </g>
      </g>
      <g id="Gruppe_207" data-name="Gruppe 207" transform="translate(4173.416 2665.595)">
        <g id="Gruppe_206" data-name="Gruppe 206" transform="translate(0 0)">
          <path id="Pfad_134" data-name="Pfad 134" d="M4488.088,2941.563a7.7,7.7,0,0,0-7.638,6.354c-2.115,12.459-3.883,22.892-5.371,31.632h40.14l4.032-37.986Z" transform="translate(-4467.43 -2941.563)" fill="#ffed01"></path>
          <path id="Pfad_135" data-name="Pfad 135" d="M4872.359,3122.661h-40.866l2.782,26.242,0,0,1.622,15.253h34.367A7.681,7.681,0,0,0,4878,3156.6C4878.007,3155.858,4878.478,3158.657,4872.359,3122.661Z" transform="translate(-4725.928 -3072.908)" fill="#ffed01"></path>
          <path id="Pfad_136" data-name="Pfad 136" d="M4856.435,2979.55c-1.483-8.743-3.255-19.173-5.37-31.632h0a7.7,7.7,0,0,0-7.642-6.354h-31.132l4.025,37.986Z" transform="translate(-4712.003 -2941.563)" fill="#ffed01"></path>
          <path id="Pfad_137" data-name="Pfad 137" d="M4686.229,3148.951h0l-2.785-26.291h-35.358l-2.789,26.291h0l-1.615,15.208h44.162Z" transform="translate(-4589.712 -3072.908)" fill="#ffed01"></path>
          <path id="Pfad_138" data-name="Pfad 138" d="M4694.711,2956.785h0l-1.614-15.221h-24.8l-1.613,15.209h0l-2.418,22.776h32.861Z" transform="translate(-4604.64 -2941.564)" fill="#ffed01"></path>
          <path id="Pfad_139" data-name="Pfad 139" d="M4490.985,3148.95l2.791-26.291h-40.889c-6.115,35.985-5.644,33.175-5.644,33.892a7.679,7.679,0,0,0,7.748,7.606h34.377l1.616-15.208" transform="translate(-4447.235 -3072.908)" fill="#ffed01"></path>
        </g>
      </g>
    </g>
    <g id="Gruppe_234" data-name="Gruppe 234" transform="translate(-6582.058 -13312.357)">
      <path id="Pfad_75" data-name="Pfad 75" d="M1216.24,1111.087H1024.959c-4.733-1.9-6.349-5.47-6.337-10.465q.147-59.7.055-119.4,0-25.656.011-51.313c.011-6.364,3.24-9.562,9.53-9.565q19.527-.01,39.054,0,72.851,0,145.7-.022a9.512,9.512,0,0,1,6.718,2.137c2.506,2.211,2.84,5.115,2.839,8.2q-.022,84.979.041,169.958C1222.58,1105.607,1220.975,1109.184,1216.24,1111.087Zm-95.649-172.568a67.1,67.1,0,1,0,67.126,67.127A67.249,67.249,0,0,0,1120.591,938.519Z" transform="translate(-901.514 -609.731)" fill="#ffed01"></path>
      <path id="Pfad_76" data-name="Pfad 76" d="M1120.339,838.593c-30.541,0-61.083-.111-91.623.088-6.528.043-10.239-3.907-10.1-10.123.216-9.757.2-19.525.006-29.282-.127-6.357,4.145-9.876,9.848-9.863q92.124.216,184.249,0c5.653-.013,9.968,3.431,9.845,9.866q-.281,14.762,0,29.533c.113,6.174-3.855,9.9-9.849,9.862C1181.922,838.5,1151.131,838.593,1120.339,838.593Z" transform="translate(-901.508 -544.413)" fill="#ffed01"></path>
      <path id="Pfad_77" data-name="Pfad 77" d="M1208.249,1022.941c-13.857-.093-26.745,3.833-39.279,9.345-6.55,2.881-13.181,5.576-20.383,6.441a53.19,53.19,0,0,1-23.6-2.884c-2.135-.722-3.005-2.558-2.62-4.828,3.633-21.386,22.359-39.029,43.993-41.049,22.011-2.055,38.677,6.78,50.122,25.566,2.574,4.225.682,7.386-4.225,7.409C1210.919,1022.946,1209.584,1022.941,1208.249,1022.941Z" transform="translate(-953.181 -644.298)" fill="#ffed01"></path>
      <g id="Gruppe_221" data-name="Gruppe 221" transform="translate(268.273 261.856)">
        <line id="Linie_92" data-name="Linie 92" x2="31.938" transform="translate(0 15.969)" fill="none" stroke="#9eb2a1" stroke-linecap="round" stroke-width="10"></line>
        <line id="Linie_93" data-name="Linie 93" x2="31.938" transform="translate(0)" fill="none" stroke="#9eb2a1" stroke-linecap="round" stroke-width="10"></line>
      </g>
      <circle id="Ellipse_26" data-name="Ellipse 26" cx="7.984" cy="7.984" r="7.984" transform="translate(137.416 261.856)" fill="#9eb2a1"></circle>
      <circle id="Ellipse_27" data-name="Ellipse 27" cx="7.984" cy="7.984" r="7.984" transform="translate(166.693 261.856)" fill="#9eb2a1"></circle>
      <circle id="Ellipse_28" data-name="Ellipse 28" cx="7.984" cy="7.984" r="7.984" transform="translate(195.969 261.856)" fill="#9eb2a1"></circle>
    </g>
  </g>
</svg>