<svg xmlns="http://www.w3.org/2000/svg" width="676" height="570" viewBox="0 0 676 570">
  <g id="Gruppe_283" data-name="Gruppe 283" transform="translate(0 1)">
    <rect id="Bild_7" data-name="Bild 7" width="676" height="570" transform="translate(0 -1)" fill="#9fb2a1"></rect>
    <g id="Gruppe_190" data-name="Gruppe 190" transform="translate(41.138 32.907)">
      <g id="Gruppe_166" data-name="Gruppe 166" transform="translate(24.12 19.79)">
        <path id="Pfad_97" data-name="Pfad 97" d="M3120.625,1543.977Z" transform="translate(-3079.89 -1543.977)" fill="#ffed01"></path>
        <path id="Pfad_98" data-name="Pfad 98" d="M3027.05,1630.229h-52.773s-5.372-.264-6.032,5.02c-.279,2.233-2.259,13.928-4.452,26.688h-36.245a26.06,26.06,0,0,1-1.93-52.056c-.054-.788-.245-1.551-.245-2.367a30.438,30.438,0,0,1,58.2-12.511,17.359,17.359,0,0,1,26.691,14.688,15.028,15.028,0,0,1-.217,1.523l0,.007A26.06,26.06,0,0,1,3027.05,1630.229Z" transform="translate(-2901.373 -1570.888)" fill="#ffed01"></path>
      </g>
      <g id="Gruppe_167" data-name="Gruppe 167" transform="translate(87.46 86.813)">
        <path id="Pfad_100" data-name="Pfad 100" d="M3295.592,1896.054a6.915,6.915,0,0,0-6.855,5.7c-1.9,11.182-3.485,20.546-4.82,28.39h36.026l3.62-34.093Z" transform="translate(-3277.052 -1896.054)" fill="#ffed01"></path>
        <path id="Pfad_101" data-name="Pfad 101" d="M3677.009,2077.152H3640.33l2.5,23.552,0,0,1.455,13.69h30.845a6.893,6.893,0,0,0,6.951-6.781C3682.079,2106.947,3682.5,2109.459,3677.009,2077.152Z" transform="translate(-3545.582 -2032.497)" fill="#ffed01"></path>
        <path id="Pfad_102" data-name="Pfad 102" d="M3660.749,1930.148c-1.332-7.847-2.922-17.208-4.82-28.39h0a6.912,6.912,0,0,0-6.858-5.7h-27.942l3.613,34.093Z" transform="translate(-3531.118 -1896.054)" fill="#ffed01"></path>
        <path id="Pfad_103" data-name="Pfad 103" d="M3490.708,2100.748h0l-2.5-23.6h-31.735l-2.5,23.6h0l-1.449,13.649h39.636Z" transform="translate(-3404.08 -2032.497)" fill="#ffed01"></path>
        <path id="Pfad_104" data-name="Pfad 104" d="M3500.429,1909.716h0l-1.45-13.661h-22.258l-1.448,13.65h0l-2.169,20.442h29.494Z" transform="translate(-3419.587 -1896.055)" fill="#ffed01"></path>
        <path id="Pfad_105" data-name="Pfad 105" d="M3295.34,2100.747l2.5-23.6h-36.7c-5.489,32.3-5.066,29.776-5.066,30.42a6.893,6.893,0,0,0,6.954,6.826h30.854l1.45-13.649" transform="translate(-3256.073 -2032.497)" fill="#ffed01"></path>
      </g>
    </g>
    <path id="Pfad_117" data-name="Pfad 117" d="M-10153.318-11911.677v34.818h-154.008v24.04" transform="translate(10647.326 12148.246)" fill="none" stroke="#ffed01" stroke-linecap="round" stroke-linejoin="round" stroke-width="10"></path>
    <path id="Pfad_118" data-name="Pfad 118" d="M-10495.269-11911.678v34.354h160.674" transform="translate(10666.29 12148.246)" fill="none" stroke="#ffed01" stroke-linecap="round" stroke-linejoin="round" stroke-width="10" stroke-dasharray="14"></path>
    <g id="Gruppe_192" data-name="Gruppe 192" transform="translate(317.696 200.827)">
      <circle id="Ellipse_22" data-name="Ellipse 22" cx="22" cy="22" r="22" transform="translate(0.304 0.173)" fill="#ffed01"></circle>
      <g id="Gruppe_191" data-name="Gruppe 191" transform="translate(9.903 9.903)">
        <path id="Pfad_120" data-name="Pfad 120" d="M0,0H24.066" transform="translate(12.033) rotate(90)" fill="none" stroke="#9fb2a1" stroke-linecap="round" stroke-width="8"></path>
        <path id="Pfad_121" data-name="Pfad 121" d="M0,0H24.066" transform="translate(24.066 12.033) rotate(180)" fill="none" stroke="#9fb2a1" stroke-linecap="round" stroke-width="8"></path>
      </g>
    </g>
    <g id="Gruppe_243" data-name="Gruppe 243" transform="translate(-6240.744 -332.375)">
      <g id="Gruppe_241" data-name="Gruppe 241" transform="translate(6692.498 409.375)">
        <path id="Pfad_171" data-name="Pfad 171" d="M6723.134,549l42.044-139.621L6807.722,549" transform="translate(-6723.134 -409.375)" fill="none" stroke="#ffed00" stroke-linecap="round" stroke-linejoin="round" stroke-width="10"></path>
        <path id="Pfad_172" data-name="Pfad 172" d="M6745.082,673.85h70.949l-56.276-35.627,33.749-34.612" transform="translate(-6739.386 -553.196)" fill="none" stroke="#ffed00" stroke-linejoin="round" stroke-width="10"></path>
      </g>
      <path id="Pfad_173" data-name="Pfad 173" d="M6732.269,604.957V586.788h79.2v18.169" transform="translate(-37.4 -131.364)" fill="none" stroke="#ffed00" stroke-linecap="round" stroke-linejoin="round" stroke-width="10"></path>
      <path id="Pfad_174" data-name="Pfad 174" d="M6681.759,764.518V746.189h105.987v18.328" transform="translate(0 -249.392)" fill="none" stroke="#ffed00" stroke-linecap="round" stroke-linejoin="round" stroke-width="10"></path>
    </g>
    <g id="Gruppe_244" data-name="Gruppe 244" transform="translate(142.572 68.644)">
      <path id="Pfad_75" data-name="Pfad 75" d="M1164.591,1061.231H1023.3c-3.5-1.407-4.69-4.04-4.681-7.73q.109-44.1.04-88.191,0-18.951.008-37.9c.008-4.7,2.393-7.063,7.039-7.065q14.423-.008,28.847,0,53.811,0,107.622-.016a7.026,7.026,0,0,1,4.962,1.578c1.851,1.633,2.1,3.778,2.1,6.059q-.016,62.769.03,125.538C1169.275,1057.183,1168.089,1059.825,1164.591,1061.231Zm-70.651-127.466a49.563,49.563,0,1,0,49.583,49.583A49.673,49.673,0,0,0,1093.941,933.764Z" transform="translate(-901.516 -626.874)" fill="#ffed01"></path>
      <path id="Pfad_76" data-name="Pfad 76" d="M1093.752,825.739c-22.559,0-45.119-.082-67.677.065-4.822.032-7.563-2.886-7.461-7.477.16-7.207.149-14.422,0-21.629-.094-4.7,3.062-7.295,7.274-7.285q68.047.159,136.095,0c4.176-.009,7.363,2.534,7.272,7.287q-.207,10.9,0,21.815c.083,4.56-2.848,7.31-7.275,7.285C1139.24,825.668,1116.5,825.739,1093.752,825.739Z" transform="translate(-901.508 -544.413)" fill="#ffed01"></path>
      <path id="Pfad_77" data-name="Pfad 77" d="M1185.779,1014.246c-10.235-.068-19.755,2.831-29.013,6.9-4.838,2.128-9.736,4.119-15.056,4.757a39.288,39.288,0,0,1-17.434-2.13,2.923,2.923,0,0,1-1.935-3.566c2.683-15.8,16.516-28.828,32.495-30.321,16.258-1.518,28.569,5.008,37.022,18.884,1.9,3.121.5,5.455-3.121,5.473C1187.752,1014.25,1186.766,1014.246,1185.779,1014.246Z" transform="translate(-966.769 -670.532)" fill="#ffed01"></path>
      <g id="Gruppe_221" data-name="Gruppe 221" transform="translate(228.764 257.451)">
        <line id="Linie_92" data-name="Linie 92" x2="23.591" transform="translate(0 11.795)" fill="none" stroke="#9eb2a1" stroke-linecap="round" stroke-width="10"></line>
        <line id="Linie_93" data-name="Linie 93" x2="23.591" transform="translate(0)" fill="none" stroke="#9eb2a1" stroke-linecap="round" stroke-width="10"></line>
      </g>
      <circle id="Ellipse_26" data-name="Ellipse 26" cx="5.898" cy="5.898" r="5.898" transform="translate(132.107 257.451)" fill="#9eb2a1"></circle>
      <circle id="Ellipse_27" data-name="Ellipse 27" cx="5.898" cy="5.898" r="5.898" transform="translate(153.732 257.451)" fill="#9eb2a1"></circle>
      <circle id="Ellipse_28" data-name="Ellipse 28" cx="5.898" cy="5.898" r="5.898" transform="translate(175.357 257.451)" fill="#9eb2a1"></circle>
    </g>
  </g>
</svg>