<svg id="Gruppe_295" data-name="Gruppe 295" xmlns="http://www.w3.org/2000/svg" width="670" height="570" viewBox="0 0 670 570">
  <rect id="Bild_30" data-name="Bild 30" width="670" height="570" fill="#9fb2a1"></rect>
  <g id="Gruppe_252" data-name="Gruppe 252" transform="translate(232 338.131)">
    <path id="Pfad_90" data-name="Pfad 90" d="M1723.811,422.742h-.011l-15.447.016V412.435h-41.216v10.372l-15.45.016a5.153,5.153,0,0,0-5.146,5.149l-.016,10.217a5.154,5.154,0,0,0,5.149,5.158h.01l72.117-.084a5.152,5.152,0,0,0,5.146-5.146l.013-10.217A5.154,5.154,0,0,0,1723.811,422.742Z" transform="translate(-1584.698 -278.479)" fill="#ffed01"></path>
    <path id="Pfad_91" data-name="Pfad 91" d="M1557.647,135.2a10.44,10.44,0,0,0-10.35,8.61c-2.865,16.882-5.262,31.02-7.277,42.863h54.392l5.465-51.474Z" transform="translate(-1529.654 -135.199)" fill="#ffed01"></path>
    <path id="Pfad_92" data-name="Pfad 92" d="M1870,274.728h-55.377l3.77,35.56-.006.006,2.2,20.669h46.569a10.408,10.408,0,0,0,10.5-10.239C1877.652,319.713,1878.29,323.506,1870,274.728Z" transform="translate(-1671.572 -207.309)" fill="#ffed01"></path>
    <path id="Pfad_93" data-name="Pfad 93" d="M1859.643,186.673c-2.01-11.848-4.412-25.981-7.277-42.863h0a10.437,10.437,0,0,0-10.354-8.61H1799.83l5.455,51.474Z" transform="translate(-1663.928 -135.199)" fill="#ffed01"></path>
    <path id="Pfad_94" data-name="Pfad 94" d="M1727.578,310.354h0l-3.773-35.627H1675.89l-3.779,35.627h0l-2.189,20.608h59.842Z" transform="translate(-1596.788 -207.309)" fill="#ffed01"></path>
    <path id="Pfad_95" data-name="Pfad 95" d="M1727.037,155.825h0l-2.189-20.625h-33.606l-2.186,20.609h0l-3.276,30.863h44.531Z" transform="translate(-1604.984 -135.2)" fill="#ffed01"></path>
    <path id="Pfad_96" data-name="Pfad 96" d="M1577.851,310.352l3.782-35.625h-55.406c-8.287,48.763-7.649,44.956-7.649,45.927a10.407,10.407,0,0,0,10.5,10.306h46.584l2.189-20.608" transform="translate(-1518.567 -207.309)" fill="#ffed01"></path>
  </g>
  <g id="Gruppe_254" data-name="Gruppe 254" transform="translate(314.696 274.827)">
    <circle id="Ellipse_22" data-name="Ellipse 22" cx="22" cy="22" r="22" transform="translate(0.304 0.173)" fill="#ffed01"></circle>
    <g id="Gruppe_191" data-name="Gruppe 191" transform="translate(9.903 9.903)">
      <path id="Pfad_120" data-name="Pfad 120" d="M0,0H24.066" transform="translate(12.033) rotate(90)" fill="none" stroke="#9fb2a1" stroke-linecap="round" stroke-width="10"></path>
      <path id="Pfad_121" data-name="Pfad 121" d="M0,0H24.066" transform="translate(24.066 12.033) rotate(180)" fill="none" stroke="#9fb2a1" stroke-linecap="round" stroke-width="10"></path>
    </g>
  </g>
  <g id="Gruppe_255" data-name="Gruppe 255" transform="translate(-6225.861 -337.375)">
    <g id="Gruppe_241" data-name="Gruppe 241" transform="translate(6694.425 409.375)">
      <path id="Pfad_171" data-name="Pfad 171" d="M6723.135,574.053l49.589-164.678L6822.9,574.053" transform="translate(-6723.135 -409.375)" fill="none" stroke="#ffed00" stroke-linecap="round" stroke-linejoin="round" stroke-width="10"></path>
      <path id="Pfad_172" data-name="Pfad 172" d="M6745.082,686.455h83.682l-66.376-42.021,39.806-40.823" transform="translate(-6738.363 -544.148)" fill="none" stroke="#ffed00" stroke-linejoin="round" stroke-width="10"></path>
    </g>
    <path id="Pfad_173" data-name="Pfad 173" d="M6732.268,608.218v-21.43h93.417v21.43" transform="translate(-35.047 -123.1)" fill="none" stroke="#ffed00" stroke-linecap="round" stroke-linejoin="round" stroke-width="10"></path>
    <path id="Pfad_174" data-name="Pfad 174" d="M6681.757,767.807V746.189h125.008v21.617" transform="translate(0.001 -233.703)" fill="none" stroke="#ffed00" stroke-linecap="round" stroke-linejoin="round" stroke-width="10"></path>
  </g>
  <g id="Gruppe_253" data-name="Gruppe 253" transform="translate(37.586 -89.495)">
    <g id="Gruppe_247" data-name="Gruppe 247" transform="translate(438.313 366.588)">
      <path id="Pfad_107" data-name="Pfad 107" d="M-10246.048-14252.906v120.637h-44.639" transform="translate(10290.687 14252.906)" fill="none" stroke="#ffed01" stroke-linecap="round" stroke-linejoin="round" stroke-width="10"></path>
    </g>
    <path id="Pfad_178" data-name="Pfad 178" d="M22.015,0V21.041H0" transform="translate(483.297 394.94) rotate(-135)" fill="none" stroke="#ffed01" stroke-linecap="round" stroke-linejoin="round" stroke-width="10"></path>
  </g>
  <g id="Gruppe_256" data-name="Gruppe 256" transform="translate(141.899 275)">
    <g id="Gruppe_247-2" data-name="Gruppe 247" transform="translate(15.223 2.092)">
      <path id="Pfad_107-2" data-name="Pfad 107" d="M-10290.687-14252.905v120.637h44.639" transform="translate(10290.687 14252.905)" fill="none" stroke="#ffed01" stroke-linecap="round" stroke-linejoin="round" stroke-width="10"></path>
    </g>
    <path id="Pfad_178-2" data-name="Pfad 178" d="M22.015,21.041V0H0" transform="translate(0 15.567) rotate(-45)" fill="none" stroke="#ffed01" stroke-linecap="round" stroke-linejoin="round" stroke-width="10"></path>
  </g>
  <rect id="Rechteck_53" data-name="Rechteck 53" width="79.747" height="42.315" rx="4" transform="translate(472.127 454.299)" fill="#ffed00"></rect>
  <path id="Rechteck_53-2" data-name="Rechteck 53" d="M4564.316,4398.793h75.643a2.052,2.052,0,0,1,2.052,2.052v38.21" transform="translate(-4083.112 -3951.793)" fill="none" stroke="#ffed00" stroke-linecap="round" stroke-miterlimit="10" stroke-width="5"></path>
  <path id="Rechteck_53-3" data-name="Rechteck 53" d="M4564.316,4398.793h75.643a2.052,2.052,0,0,1,2.052,2.052v38.21" transform="translate(-4073.112 -3961.793)" fill="none" stroke="#ffed00" stroke-linecap="round" stroke-miterlimit="10" stroke-width="5"></path>
  <text id="_" data-name="€" transform="translate(501 491)" fill="#a0b2a1" font-size="40" font-family="OpenSans-Bold, Open Sans" font-weight="700"><tspan x="0" y="0">€</tspan></text>
  <g id="Gruppe_286" data-name="Gruppe 286" transform="translate(2.127 -4.9)">
    <path id="Vereinigungsmenge_3" data-name="Vereinigungsmenge 3" d="M11.643,174.577C5.212,174.577,0,168.714,0,161.484V21.822C0,14.59,5.212,8.727,11.643,8.727h3.883V6.545C15.526,2.93,18.133,0,21.348,0H56.284C59.5,0,62.1,2.93,62.1,6.545V8.727h3.883c6.432,0,11.643,5.863,11.643,13.095V161.484c0,7.231-5.211,13.094-11.643,13.094Z" transform="translate(122.002 67.001)" fill="#ffed01"></path>
    <g id="Rechteck_103" data-name="Rechteck 103" transform="translate(130.231 84.233)" fill="#a0b2a1" stroke="#a0b2a1" stroke-linecap="round" stroke-linejoin="round" stroke-width="10">
      <rect width="60.309" height="148.159" stroke="none"></rect>
      <rect x="5" y="5" width="50.309" height="138.159" fill="none"></rect>
    </g>
    <rect id="Rechteck_104" data-name="Rechteck 104" width="32.924" height="16.462" rx="4" transform="translate(144 73.944)" fill="#a0b2a1"></rect>
    <rect id="Rechteck_105" data-name="Rechteck 105" width="42.777" height="129.742" rx="5" transform="translate(139.491 92.127)" fill="#ffed00"></rect>
  </g>
</svg>