<svg id="Gruppe_298" data-name="Gruppe 298" xmlns="http://www.w3.org/2000/svg" width="670" height="570" viewBox="0 0 670 570">
  <rect id="Bild_9" data-name="Bild 9" width="670" height="570" fill="#9fb2a1"></rect>
  <g id="Gruppe_297" data-name="Gruppe 297">
    <path id="Icon_awesome-battery-full" data-name="Icon awesome-battery-full" d="M111.578,19.877V33h6.563V46.131h-6.563V59.257H13.127V19.877h98.451M114.86,6.75H9.845A9.845,9.845,0,0,0,0,16.6V62.539a9.845,9.845,0,0,0,9.845,9.845H114.86a9.845,9.845,0,0,0,9.845-9.845V59.257h1.641a4.923,4.923,0,0,0,4.923-4.923V24.8a4.923,4.923,0,0,0-4.923-4.923h-1.641V16.6A9.845,9.845,0,0,0,114.86,6.75Zm-9.845,19.69H19.69V52.694h85.325Z" transform="translate(455.005 138.754)" fill="#ffed01"></path>
    <g id="Gruppe_215" data-name="Gruppe 215" transform="translate(-18.139 -83.475)">
      <path id="Icon_awesome-arrow-right" data-name="Icon awesome-arrow-right" d="M25.719,40.688,23.5,42.9a2.387,2.387,0,0,1-3.385,0L.7,23.5a2.387,2.387,0,0,1,0-3.385L20.117.7A2.387,2.387,0,0,1,23.5.7l2.217,2.217a2.4,2.4,0,0,1-.04,3.425L13.646,17.81h28.7a2.391,2.391,0,0,1,2.4,2.4v3.2a2.391,2.391,0,0,1-2.4,2.4h-28.7L25.679,37.262A2.382,2.382,0,0,1,25.719,40.688Z" transform="translate(428.323 397.281) rotate(-45)" fill="#ffed01"></path>
      <path id="Pfad_140" data-name="Pfad 140" d="M0,65.346V0" transform="translate(493.961 362.476) rotate(45)" fill="none" stroke="#ffed01" stroke-linecap="round" stroke-linejoin="round" stroke-width="8"></path>
    </g>
    <g id="Gruppe_214" data-name="Gruppe 214" transform="translate(29.5 -80.311)">
      <path id="Icon_awesome-arrow-right-2" data-name="Icon awesome-arrow-right" d="M25.719,40.688,23.5,42.9a2.387,2.387,0,0,1-3.385,0L.7,23.5a2.387,2.387,0,0,1,0-3.385L20.117.7A2.387,2.387,0,0,1,23.5.7l2.217,2.217a2.4,2.4,0,0,1-.04,3.425L13.646,17.81h28.7a2.391,2.391,0,0,1,2.4,2.4v3.2a2.391,2.391,0,0,1-2.4,2.4h-28.7L25.679,37.262A2.382,2.382,0,0,1,25.719,40.688Z" transform="translate(234.164 424.949) rotate(-135)" fill="#ffed01"></path>
      <path id="Pfad_141" data-name="Pfad 141" d="M0,65.346V0" transform="translate(199.358 359.312) rotate(-45)" fill="none" stroke="#ffed01" stroke-linecap="round" stroke-linejoin="round" stroke-width="8"></path>
    </g>
    <g id="Gruppe_190" data-name="Gruppe 190" transform="translate(41.538 62.982)">
      <g id="Gruppe_166" data-name="Gruppe 166" transform="translate(0 0)">
        <path id="Pfad_97" data-name="Pfad 97" d="M3120.625,1543.977Z" transform="translate(-3066.563 -1543.977)" fill="#ffed01"></path>
        <path id="Pfad_98" data-name="Pfad 98" d="M3068.17,1647.635h-70.039s-7.129-.35-8.006,6.662c-.37,2.964-3,18.486-5.908,35.42h-48.1a34.586,34.586,0,0,1-2.562-69.088c-.071-1.045-.325-2.059-.325-3.141a40.4,40.4,0,0,1,77.247-16.6,23.039,23.039,0,0,1,35.425,19.494,19.928,19.928,0,0,1-.288,2.022l-.005.01A34.586,34.586,0,0,1,3068.17,1647.635Z" transform="translate(-2901.373 -1568.879)" fill="#ffed01"></path>
      </g>
      <g id="Gruppe_167" data-name="Gruppe 167" transform="translate(87.46 86.813)">
        <path id="Pfad_100" data-name="Pfad 100" d="M3295.592,1896.054a6.915,6.915,0,0,0-6.855,5.7c-1.9,11.182-3.485,20.546-4.82,28.39h36.026l3.62-34.093Z" transform="translate(-3277.052 -1896.054)" fill="#ffed01"></path>
        <path id="Pfad_101" data-name="Pfad 101" d="M3677.009,2077.152H3640.33l2.5,23.552,0,0,1.455,13.69h30.845a6.893,6.893,0,0,0,6.951-6.781C3682.079,2106.947,3682.5,2109.459,3677.009,2077.152Z" transform="translate(-3545.582 -2032.497)" fill="#ffed01"></path>
        <path id="Pfad_102" data-name="Pfad 102" d="M3660.749,1930.148c-1.332-7.847-2.922-17.208-4.82-28.39h0a6.912,6.912,0,0,0-6.858-5.7h-27.942l3.613,34.093Z" transform="translate(-3531.118 -1896.054)" fill="#ffed01"></path>
        <path id="Pfad_103" data-name="Pfad 103" d="M3490.708,2100.748h0l-2.5-23.6h-31.735l-2.5,23.6h0l-1.449,13.649h39.636Z" transform="translate(-3404.08 -2032.497)" fill="#ffed01"></path>
        <path id="Pfad_104" data-name="Pfad 104" d="M3500.429,1909.716h0l-1.45-13.661h-22.258l-1.448,13.65h0l-2.169,20.442h29.494Z" transform="translate(-3419.587 -1896.055)" fill="#ffed01"></path>
        <path id="Pfad_105" data-name="Pfad 105" d="M3295.34,2100.747l2.5-23.6h-36.7c-5.489,32.3-5.066,29.776-5.066,30.42a6.893,6.893,0,0,0,6.954,6.826h30.854l1.45-13.649" transform="translate(-3256.073 -2032.497)" fill="#ffed01"></path>
      </g>
    </g>
    <g id="nfyziv" transform="translate(285.801 365.56)">
      <g id="Gruppe_119" data-name="Gruppe 119" transform="translate(0 0)">
        <path id="Pfad_75" data-name="Pfad 75" d="M1148.539,1045.734h-125.75c-3.111-1.252-4.174-3.6-4.166-6.88q.1-39.245.036-78.492,0-16.867.007-33.734c.007-4.184,2.13-6.286,6.265-6.288q12.838-.007,25.675,0,47.894,0,95.787-.014a6.255,6.255,0,0,1,4.416,1.4c1.648,1.454,1.867,3.363,1.867,5.393q-.014,55.866.027,111.732C1152.707,1042.132,1151.652,1044.483,1148.539,1045.734Zm-62.881-113.448a44.112,44.112,0,1,0,44.13,44.13A44.21,44.21,0,0,0,1085.658,932.286Z" transform="translate(-1018.619 -877.161)" fill="#ffed01"></path>
        <path id="Pfad_76" data-name="Pfad 76" d="M1085.488,821.744c-20.078,0-40.157-.073-60.234.058-4.292.028-6.731-2.568-6.641-6.655q.213-9.621,0-19.251c-.084-4.179,2.725-6.493,6.474-6.484q60.564.142,121.128,0c3.716-.008,6.553,2.256,6.472,6.486q-.184,9.7,0,19.416c.074,4.059-2.534,6.506-6.475,6.484C1125.974,821.681,1105.731,821.744,1085.488,821.744Zm-35.858-5.195a5.43,5.43,0,0,0,5.414-5.414,5.309,5.309,0,0,0-5.352-5.256,5.219,5.219,0,0,0-5.47,5.275A5.345,5.345,0,0,0,1049.63,816.55Zm20.409-.011a5.392,5.392,0,0,0,5.413-5.25,5.464,5.464,0,0,0-5.438-5.432,5.342,5.342,0,1,0,.025,10.682Zm20.361.005a5.337,5.337,0,1,0,.02-10.674,5.337,5.337,0,1,0-.02,10.674Z" transform="translate(-1018.611 -789.413)" fill="#ffed01"></path>
        <path id="Pfad_77" data-name="Pfad 77" d="M1178.8,1011.544c-9.109-.061-17.583,2.52-25.822,6.144-4.306,1.894-8.665,3.666-13.4,4.234a34.962,34.962,0,0,1-15.516-1.9,2.6,2.6,0,0,1-1.723-3.174c2.388-14.06,14.7-25.658,28.921-26.986,14.47-1.351,25.427,4.457,32.951,16.807,1.693,2.778.449,4.855-2.778,4.871C1180.551,1011.547,1179.673,1011.544,1178.8,1011.544Z" transform="translate(-1088.095 -923.643)" fill="#ffed01"></path>
      </g>
    </g>
    <g id="Gruppe_218" data-name="Gruppe 218" transform="translate(-59.732 -42.365)">
      <path id="Icon_awesome-arrow-right-3" data-name="Icon awesome-arrow-right" d="M25.719,2.921,23.5.7a2.387,2.387,0,0,0-3.385,0L.7,20.107a2.387,2.387,0,0,0,0,3.385L20.117,42.9a2.387,2.387,0,0,0,3.385,0l2.217-2.217a2.4,2.4,0,0,0-.04-3.425L13.646,25.8h28.7a2.391,2.391,0,0,0,2.4-2.4v-3.2a2.391,2.391,0,0,0-2.4-2.4h-28.7L25.679,6.346A2.382,2.382,0,0,0,25.719,2.921Z" transform="translate(447.755 257.697) rotate(180)" fill="#ffed01"></path>
      <path id="Pfad_129" data-name="Pfad 129" d="M0,0V65.346" transform="translate(442.077 235.891) rotate(90)" fill="none" stroke="#ffed01" stroke-linecap="round" stroke-linejoin="round" stroke-width="8"></path>
    </g>
  </g>
</svg>