<svg xmlns="http://www.w3.org/2000/svg" width="340" height="401" viewBox="0 0 340 401">
  <g id="Gruppe_2329" data-name="Gruppe 2329" transform="translate(-142 -3049)">
    <g id="Gruppe_854" data-name="Gruppe 854" transform="translate(0 -120)">
      <rect id="Bild_17" data-name="Bild 17" width="340" height="400" transform="translate(142 3169)" fill="#f8f8f8"></rect>
    </g>
    <rect id="Bild_41" data-name="Bild 41" width="340" height="400" transform="translate(142 3050)" fill="#9fb2a1"></rect>
    <path id="Pfad_90" data-name="Pfad 90" d="M1708.857,420.748h-.009l-12.458.013v-8.326H1663.15V420.8l-12.46.013a4.156,4.156,0,0,0-4.15,4.153l-.013,8.24a4.156,4.156,0,0,0,4.153,4.16h.008l58.162-.067a4.155,4.155,0,0,0,4.15-4.15l.01-8.24A4.157,4.157,0,0,0,1708.857,420.748Z" transform="translate(-1367.767 2879.117)" fill="#ffe504"></path>
    <path id="Pfad_91" data-name="Pfad 91" d="M1554.236,135.2a8.42,8.42,0,0,0-8.347,6.944c-2.311,13.616-4.244,25.018-5.869,34.57h43.868L1588.3,135.2Z" transform="translate(-1302.765 3048.316)" fill="#ffe504"></path>
    <path id="Pfad_92" data-name="Pfad 92" d="M1859.283,274.728h-44.662l3.041,28.679,0,.005,1.772,16.669h37.558a8.394,8.394,0,0,0,8.464-8.258C1865.456,311.008,1865.97,314.068,1859.283,274.728Z" transform="translate(-1470.356 2963.161)" fill="#ffe504"></path>
    <path id="Pfad_93" data-name="Pfad 93" d="M1848.07,176.713c-1.621-9.555-3.558-20.954-5.869-34.57h0a8.417,8.417,0,0,0-8.351-6.944H1799.83l4.4,41.514Z" transform="translate(-1461.329 3048.316)" fill="#ffe504"></path>
    <path id="Pfad_94" data-name="Pfad 94" d="M1716.422,303.46h0l-3.043-28.733h-38.642l-3.048,28.733h0l-1.765,16.62h48.263Z" transform="translate(-1382.044 2963.161)" fill="#ffe504"></path>
    <path id="Pfad_95" data-name="Pfad 95" d="M1719.054,151.834h0l-1.765-16.634h-27.1l-1.763,16.621h0l-2.642,24.892h35.914Z" transform="translate(-1391.723 3048.316)" fill="#ffe504"></path>
    <path id="Pfad_96" data-name="Pfad 96" d="M1566.38,303.459l3.05-28.732h-44.685c-6.683,39.328-6.169,36.257-6.169,37.04a8.393,8.393,0,0,0,8.468,8.312h37.57l1.766-16.62" transform="translate(-1289.672 2963.161)" fill="#ffe504"></path>
  </g>
</svg>