<svg xmlns="http://www.w3.org/2000/svg" xmlns:xlink="http://www.w3.org/1999/xlink" width="340" height="400" viewBox="0 0 340 400">
  <defs>
    <clipPath id="clip-path">
      <rect id="Rechteck_344" data-name="Rechteck 344" width="183.543" height="163.235" fill="none"></rect>
    </clipPath>
  </defs>
  <g id="Gruppe_853" data-name="Gruppe 853" transform="translate(-984 -3169)">
    <g id="Gruppe_2330" data-name="Gruppe 2330">
      <rect id="Bild_20" data-name="Bild 20" width="340" height="400" transform="translate(984 3169)" fill="#f8f8f8"></rect>
      <rect id="Bild_39" data-name="Bild 39" width="340" height="400" transform="translate(984 3169)" fill="#9fb2a1"></rect>
      <g id="Gruppe_894" data-name="Gruppe 894" transform="translate(1062.229 3287.383)">
        <g id="Gruppe_893" data-name="Gruppe 893" clip-path="url(#clip-path)">
          <path id="Pfad_295" data-name="Pfad 295" d="M126.661,25.917C150.48,43.7,152.415,67.869,152.509,73.953a1.412,1.412,0,0,1-1.418,1.435h-9.005a1.417,1.417,0,0,0-1.012,2.41l20.35,20.746a1.419,1.419,0,0,0,2.022,0l19.187-19.49a1.418,1.418,0,0,0-1.01-2.412h-8.114A1.415,1.415,0,0,1,172.1,75.2C172.569,35.883,143.211,3.368,101.241.66c-30.918-2-53.823,15.083-65.608,26.619a1.417,1.417,0,0,0,1.769,2.2c52.16-34.5,89.259-3.559,89.259-3.559" fill="#ffe500"></path>
          <path id="Pfad_296" data-name="Pfad 296" d="M126.661,25.917C150.48,43.7,152.415,67.869,152.509,73.953a1.412,1.412,0,0,1-1.418,1.435h-9.005a1.417,1.417,0,0,0-1.012,2.41l20.35,20.746a1.419,1.419,0,0,0,2.022,0l19.187-19.49a1.418,1.418,0,0,0-1.01-2.412h-8.114A1.415,1.415,0,0,1,172.1,75.2C172.569,35.883,143.211,3.368,101.241.66c-30.918-2-53.823,15.083-65.608,26.619a1.417,1.417,0,0,0,1.769,2.2C89.562-5.024,126.661,25.917,126.661,25.917Z" fill="none" stroke="#ffe500" stroke-miterlimit="10" stroke-width="1"></path>
          <path id="Pfad_297" data-name="Pfad 297" d="M56.882,137.318C33.063,119.531,31.128,95.366,31.034,89.282a1.412,1.412,0,0,1,1.418-1.435h9.005a1.417,1.417,0,0,0,1.012-2.41L22.119,64.691a1.419,1.419,0,0,0-2.022,0L.91,84.179a1.418,1.418,0,0,0,1.01,2.412h8.114a1.415,1.415,0,0,1,1.411,1.442c-.471,39.319,28.887,71.834,70.857,74.542,30.918,2,53.823-15.083,65.608-26.619a1.417,1.417,0,0,0-1.769-2.2c-52.16,34.5-89.259,3.559-89.259,3.559" fill="#ffe500"></path>
          <path id="Pfad_298" data-name="Pfad 298" d="M56.882,137.318C33.063,119.531,31.128,95.366,31.034,89.282a1.412,1.412,0,0,1,1.418-1.435h9.005a1.417,1.417,0,0,0,1.012-2.41L22.119,64.691a1.419,1.419,0,0,0-2.022,0L.91,84.179a1.418,1.418,0,0,0,1.01,2.412h8.114a1.415,1.415,0,0,1,1.411,1.442c-.471,39.319,28.887,71.834,70.857,74.542,30.918,2,53.823-15.083,65.608-26.619a1.417,1.417,0,0,0-1.769-2.2C93.981,168.259,56.882,137.318,56.882,137.318Z" fill="none" stroke="#ffe500" stroke-miterlimit="10" stroke-width="1"></path>
          <path id="Pfad_299" data-name="Pfad 299" d="M98.67,38.82,65.581,93.544H87.64v33.089l34.048-55.148H98.67Z" fill="#ffe500"></path>
        </g>
      </g>
    </g>
  </g>
</svg>