<svg xmlns="http://www.w3.org/2000/svg" width="340" height="400" viewBox="0 0 340 400">
  <g id="Gruppe_859" data-name="Gruppe 859" transform="translate(-142 -3650)">
    <rect id="Bild_17" data-name="Bild 17" width="340" height="400" transform="translate(142 3650)" fill="#f8f8f8"></rect>
    <rect id="Bild_56" data-name="Bild 56" width="340" height="400" transform="translate(142 3650)" fill="#9fb2a1"></rect>
    <g id="Gruppe_957" data-name="Gruppe 957" transform="translate(-2751.188 3950.559)">
      <path id="Pfad_369" data-name="Pfad 369" d="M3160.115-35.832l-60.368-16.621a3,3,0,0,1-2.216-2.889V-157.756a3.02,3.02,0,0,1,3.835-2.889l60.368,16.622a3,3,0,0,1,2.215,2.889V-38.72A3.019,3.019,0,0,1,3160.115-35.832Z" fill="#ffe500"></path>
      <path id="Pfad_370" data-name="Pfad 370" d="M3090.293-136.207" fill="#ffe500" stroke="#ffe500" stroke-miterlimit="10" stroke-width="1"></path>
      <path id="Pfad_371" data-name="Pfad 371" d="M3083.379-50.642h-110.24a10.714,10.714,0,0,1-10.714-10.714v-95.326a10.714,10.714,0,0,1,10.714-10.714h110.24a10.714,10.714,0,0,1,10.714,10.714v95.326A10.714,10.714,0,0,1,3083.379-50.642Z" fill="#ffe500" stroke="#ffe500" stroke-miterlimit="10" stroke-width="1"></path>
      <path id="Pfad_372" data-name="Pfad 372" d="M3031.2-109.192,3017.37-86.32h9.22v13.83l14.231-23.05H3031.2v-13.653" fill="#91a490"></path>
      <rect id="Rechteck_383" data-name="Rechteck 383" width="4.733" height="4.733" transform="translate(2981.217 -93.208)" fill="#91a490"></rect>
      <rect id="Rechteck_384" data-name="Rechteck 384" width="4.733" height="4.733" transform="translate(2991.095 -93.287)" fill="#91a490"></rect>
      <rect id="Rechteck_385" data-name="Rechteck 385" width="4.733" height="4.733" transform="translate(3001.427 -93.244)" fill="#91a490"></rect>
      <rect id="Rechteck_386" data-name="Rechteck 386" width="4.733" height="4.733" transform="translate(3050.564 -93.244)" fill="#91a490"></rect>
      <rect id="Rechteck_387" data-name="Rechteck 387" width="4.733" height="4.733" transform="translate(3060.981 -93.244)" fill="#91a490"></rect>
      <rect id="Rechteck_388" data-name="Rechteck 388" width="4.733" height="4.733" transform="translate(3070.763 -93.244)" fill="#91a490"></rect>
      <path id="Pfad_373" data-name="Pfad 373" d="M3093.629-117.38" fill="#ffe500" stroke="#ffe500" stroke-miterlimit="10" stroke-width="1"></path>
      <rect id="Rechteck_389" data-name="Rechteck 389" width="83.463" height="21.547" rx="10.773" transform="translate(2986.831 -144.575)" fill="#91a490" stroke="#91a490" stroke-miterlimit="10" stroke-width="1"></rect>
      <line id="Linie_215" data-name="Linie 215" y2="31.47" transform="translate(3006.161 -148.925)" stroke="#ffe500" stroke-miterlimit="10" stroke-width="5"></line>
      <line id="Linie_216" data-name="Linie 216" y2="31.47" transform="translate(3028.496 -149.536)" stroke="#ffe500" stroke-miterlimit="10" stroke-width="5"></line>
      <line id="Linie_217" data-name="Linie 217" y2="31.47" transform="translate(3050.832 -148.763)" stroke="#ffe500" stroke-miterlimit="10" stroke-width="5"></line>
      <path id="Pfad_379" data-name="Pfad 379" d="M11.207,0H120.461a11.207,11.207,0,0,1,11.207,11.207v90.809a11.207,11.207,0,0,1-11.207,11.207H11.207A11.207,11.207,0,0,1,0,102.016V11.207A11.207,11.207,0,0,1,11.207,0Z" transform="translate(2962.425 -165.241)" fill="none" stroke="#9fb2a1" stroke-width="7.116"></path>
    </g>
  </g>
</svg>