<?xml version="1.0"?>
<svg xmlns="http://www.w3.org/2000/svg" version="1.1" viewBox="0 0 575.88 590.89">
  <defs>
    
  </defs>
  <g id="Hintergrund">
    <rect class="cls-1" x="-.96" y="-3.39" width="572.7" height="595.41"></rect>
  </g>
  <g id="LeBe_Solar_Energie" data-name="LeBe Solar Energie">
    <g>
      <path class="cls-2" d="M363.16,121.38v36.23c85,17.2,149.19,92.47,149.19,182.46,0,102.65-83.51,186.16-186.16,186.16-53.38,0-101.54-22.61-135.52-58.72h-45.89c40.17,57.02,106.51,94.35,181.41,94.35,122.29,0,221.78-99.49,221.78-221.78,0-109.7-80.06-201.03-184.82-218.69Z"></path>
      <path class="cls-2" d="M209.81,261.4v170.52h117.8v-30.16h-83.36v-42.27h69.82v-29.92h-69.82v-38h83.36v-30.16h-117.8ZM82.75,359.02h38.71c17.1,0,26.36,9.02,26.36,21.85s-9.26,21.85-26.36,21.85h-38.71v-43.7ZM82.75,330.75v-40.37h33.49c17.34,0,27.07,6.89,27.07,20.19s-9.74,20.19-27.07,20.19h-33.49ZM49.26,431.93h74.57c36.1,0,57.71-17.81,57.71-47.74,0-20.66-11.87-35.15-28.97-40.85,11.64-4.99,23.75-16.15,23.75-36.57,0-29.21-19.71-45.36-56.76-45.36H49.26v170.52Z"></path>
      <path class="cls-2" d="M209.57,56.29v170.52h117.8v-30.16h-83.36v-42.27h69.82v-29.92h-69.82v-38h83.36v-30.16h-117.8ZM49.26,226.82h120.09v-30.16h-85.18V56.29h-34.91v170.52Z"></path>
    </g>
  </g>
</svg>