<?xml version="1.0"?>

<svg version="1.1" id="SENEC_Logo" xmlns="http://www.w3.org/2000/svg" xmlns:xlink="http://www.w3.org/1999/xlink" x="0px" y="0px" viewBox="0 0 198.4 113.4" style="enable-background:new 0 0 198.4 113.4;" xml:space="preserve">

<g>
&#x9;<g>
&#x9;&#x9;<path class="st0" d="M106.6,41c-0.8,0-1.4,0.6-1.4,1.4v17c0,0.8-0.3,0.9-0.8,0.2L92.7,42.1c-0.4-0.6-1.4-1.1-2.1-1.1h-3.1&#xA;&#x9;&#x9;&#x9;c-0.8,0-1.4,0.6-1.4,1.4V71c0,0.8,0.6,1.4,1.4,1.4h4.2c0.8,0,1.4-0.6,1.4-1.4V54.5c0-0.8,0.3-0.9,0.8-0.2l11.6,17&#xA;&#x9;&#x9;&#x9;c0.4,0.6,1.4,1.1,2.1,1.1h3.3c0.8,0,1.4-0.6,1.4-1.4V42.4c0-0.8-0.6-1.4-1.4-1.4H106.6z"></path>
&#x9;&#x9;<g>
&#x9;&#x9;&#x9;<g>
&#x9;&#x9;&#x9;&#x9;<path class="st0" d="M59.2,42.4c0-0.8,0.6-1.4,1.4-1.4h19.7c0.8,0,1.1,0.5,0.7,1.2l-2.1,3.7c-0.4,0.6-1.3,1.2-2,1.2H60.5&#xA;&#x9;&#x9;&#x9;&#x9;&#x9;c-0.8,0-1.4-0.6-1.4-1.4L59.2,42.4z"></path>
&#x9;&#x9;&#x9;</g>
&#x9;&#x9;&#x9;<g>
&#x9;&#x9;&#x9;&#x9;<path class="st0" d="M59.2,67.7c0-0.8,0.6-1.4,1.4-1.4h19.7c0.8,0,1.1,0.5,0.7,1.2l-2.1,3.7c-0.4,0.6-1.3,1.2-2,1.2H60.5&#xA;&#x9;&#x9;&#x9;&#x9;&#x9;c-0.8,0-1.4-0.6-1.4-1.4L59.2,67.7z"></path>
&#x9;&#x9;&#x9;</g>
&#x9;&#x9;&#x9;<g>
&#x9;&#x9;&#x9;&#x9;<path class="st0" d="M59.2,54.7c0-0.8,0.6-1.4,1.4-1.4h16.3c0.8,0,1.1,0.5,0.7,1.2l-2.1,3.7c-0.4,0.6-1.3,1.2-2,1.2h-13&#xA;&#x9;&#x9;&#x9;&#x9;&#x9;c-0.8,0-1.4-0.6-1.4-1.4L59.2,54.7z"></path>
&#x9;&#x9;&#x9;</g>
&#x9;&#x9;</g>
&#x9;&#x9;<path class="st0" d="M119.3,42.4c0-0.8,0.6-1.4,1.4-1.4h19.7c0.8,0,1.1,0.5,0.7,1.2l-2.1,3.7c-0.4,0.6-1.3,1.2-2,1.2h-16.2&#xA;&#x9;&#x9;&#x9;c-0.8,0-1.4-0.6-1.4-1.4L119.3,42.4z"></path>
&#x9;&#x9;<path class="st0" d="M119.3,67.7c0-0.8,0.6-1.4,1.4-1.4h19.7c0.8,0,1.1,0.5,0.7,1.2l-2.1,3.7c-0.4,0.6-1.3,1.2-2,1.2h-16.2&#xA;&#x9;&#x9;&#x9;c-0.8,0-1.4-0.6-1.4-1.4L119.3,67.7z"></path>
&#x9;&#x9;<path class="st0" d="M119.3,54.7c0-0.8,0.6-1.4,1.4-1.4H137c0.8,0,1.1,0.5,0.7,1.2l-2.1,3.7c-0.4,0.6-1.3,1.2-2,1.2h-12.8&#xA;&#x9;&#x9;&#x9;c-0.8,0-1.4-0.6-1.4-1.4L119.3,54.7z"></path>
&#x9;&#x9;<path class="st0" d="M155.6,72.4c0.2,0,7.3,0,7.3,0c0.8,0,1.7-0.5,2-1.2l2.1-3.7c0.4-0.6,0.1-1.2-0.7-1.2h-7.2h-1.4&#xA;&#x9;&#x9;&#x9;c-4.1-0.2-5.5-1.9-5.5-5.8c0-2.6,0-5.1,0-8.5c0-2.9,2.2-4.9,5-4.9h5.6c0.8,0,1.7-0.5,2-1.2l2.1-3.7c0.4-0.6,0.1-1.2-0.7-1.2&#xA;&#x9;&#x9;&#x9;c0,0-9.8,0-10.5,0c-6.5,0-10.6,5-10.6,11.3c0,5.3,0,6,0,8.9C145.3,67,148.3,72.4,155.6,72.4"></path>
&#x9;&#x9;<path class="st0" d="M44,72.4c5.8,0,9.5-3.1,9.5-7.1c0-1.6,0-2.4,0-4.2c0-2.8-1.5-5.9-5.9-6.8c-2.1-0.4-7.6-1.5-7.6-1.5&#xA;&#x9;&#x9;&#x9;c-1.2-0.3-1.9-1.2-1.9-2.1c0-0.3,0,0.5,0-0.7c0-1.4,1-2.9,2.8-2.9c0.2,0,7.7,0,7.7,0c0.8,0,1.7-0.5,2-1.2l2.1-3.7&#xA;&#x9;&#x9;&#x9;c0.4-0.6,0.1-1.2-0.7-1.2c0,0-10,0-11.2,0c-6.1,0-9.7,3.8-9.7,7.9c0,1.4,0,1.2,0,2.3c0,4.3,2.5,6.7,5.7,7.4&#xA;&#x9;&#x9;&#x9;c0.6,0.1,6.9,1.5,7.7,1.7c1.8,0.4,2,1.6,2,2.4c0,0.4,0,0.6,0,1.2c0,2.5-3,2.4-3.8,2.4c-0.5,0-10.2,0-10.2,0&#xA;&#x9;&#x9;&#x9;c-0.8,0-1.4,0.6-1.4,1.4V71c0,0.8,0.6,1.4,1.4,1.4C32.6,72.4,39.8,72.4,44,72.4c5.8,0,9.5-3.1,9.5-7.1"></path>
&#x9;</g>
</g>
</svg>