<?xml version="1.0"?>

<svg version="1.1" id="Ebene_1" xmlns="http://www.w3.org/2000/svg" xmlns:xlink="http://www.w3.org/1999/xlink" x="0px" y="0px" viewBox="0 0 297.6 121.9" style="enable-background:new 0 0 297.6 121.9;" xml:space="preserve">

<rect class="background" width="100%" height="100%"></rect>
<path class="st0" d="M44.2,36.3v-0.2c7.3-2.8,10.2-7.9,10.2-13.2c0-6-3.6-10.6-8.5-12.8c-4.9-2.5-10.2-3.1-19.1-3.1&#xA;&#x9;c-7.7,0-16,0.7-19.8,1.3v61.4c3.4,0.6,8.9,1,16.5,1c13.4,0,21.2-2,25.9-5.6c4.2-3.2,7-7.8,7-13.6C56.5,44.1,51.9,38.5,44.2,36.3z&#xA;&#x9; M23.7,19.4c1.1-0.2,2.7-0.4,5.5-0.4c5.7,0,8.5,2.3,8.5,6c0,4-3.4,6.5-10.6,6.5h-3.3V19.4z M28.5,58.5c-2.1,0-3.6,0-4.8-0.2V43.5h4&#xA;&#x9;c6.3,0,11.1,2,11.1,7.3C38.9,56.3,34.1,58.5,28.5,58.5z"></path>
<path class="st0" d="M101.3,7.5H79L60.8,70.1h17.4l3.5-14.5h16.2l4,14.5H120L101.3,7.5z M83.9,43.2l2.7-11.1&#xA;&#x9;c0.9-3.5,1.9-8.7,2.8-12.4h0.2c0.9,3.7,2.1,8.8,3.1,12.3l2.9,11.2H83.9z"></path>
<g>
&#x9;<path class="st0" d="M124.4,7.5h16.8V43c0,9.5,3.3,14.9,9.8,14.9c6.7,0,9.9-4.9,9.9-14.9V7.5h16.8v34.5c0,19.3-9.7,29.1-27.2,29.1&#xA;&#x9;&#x9;c-17.2,0-26.2-9.4-26.2-29.5V7.5z"></path>
</g>
<g>
&#x9;<polygon class="st0" points="189.2,7.5 229.9,7.5 229.9,21.2 206,21.2 206,31.3 228.5,31.3 228.5,44.9 206,44.9 206,56.4 &#xA;&#x9;&#x9;231.2,56.4 231.2,70.1 189.2,70.1 &#x9;"></polygon>
</g>
<path class="st0" d="M285.4,52.2c-1.6-5.4-3.8-9.4-8-11.1v-0.4c4.9-1.8,10.8-7.3,10.8-15.1c0-6.1-2.2-10.6-6.2-13.6&#xA;&#x9;c-4.7-3.5-11.6-4.8-21.2-4.8c-8.4,0-15.5,0.6-20.3,1.3v61.8h16.6V46.6h2.7c5.2,0,7.5,1.6,9.2,9.1c1.9,7.7,3.4,12.5,4.4,14.4h17.2&#xA;&#x9;C289.3,67.7,287.3,58.6,285.4,52.2z M261.5,34.7h-4.4V19.8c0.8-0.2,2.5-0.4,5.7-0.4c5.6,0.1,8.6,2.7,8.6,7.4&#xA;&#x9;C271.4,31.5,267.8,34.7,261.5,34.7z"></path>
<g>
&#x9;<path class="st1" d="M28.5,80.2L27,85.4c-1.3-0.7-3.7-1.7-7-1.7c-4.1,0-5.8,2.2-5.8,4.2c0,2.7,2,4,6.7,5.8&#xA;&#x9;&#x9;c6.1,2.3,9.1,5.4,9.1,10.4c0,5.6-4.3,10.5-13.4,10.5c-3.7,0-7.6-1-9.5-2.2l1.4-5.3c2.1,1.2,5.2,2.2,8.5,2.2c4.1,0,6.4-1.9,6.4-4.8&#xA;&#x9;&#x9;c0-2.7-1.8-4.2-6.3-5.9c-5.8-2.1-9.5-5.2-9.5-10.2c0-5.7,4.8-10.1,12.4-10.1C23.9,78.5,26.7,79.3,28.5,80.2z"></path>
</g>
<path class="st1" d="M50.6,78.5c-9.9,0-16.7,7.6-16.7,18.4c0,10.3,6.3,17.9,16.2,17.9c9.7,0,16.9-6.7,16.9-18.5&#xA;&#x9;C67,86.2,60.9,78.5,50.6,78.5z M50.5,109.6c-6.2,0-9.8-5.7-9.8-12.8c0-7.3,3.4-13.2,9.8-13.2c6.4,0,9.7,6.3,9.7,12.9&#xA;&#x9;C60.2,103.9,56.7,109.6,50.5,109.6z"></path>
<g>
&#x9;<polygon class="st1" points="72.5,79 79,79 79,108.9 93.4,108.9 93.4,114.2 72.5,114.2 &#x9;"></polygon>
</g>
<path class="st1" d="M115.4,79h-8.2l-11.3,35.2h6.6l3-10h11.2l3.2,10h6.9L115.4,79z M106.6,99.4l2.7-8.7c0.6-2.1,1.1-4.5,1.7-6.6&#xA;&#x9;h0.1c0.5,2,1.1,4.4,1.8,6.6l2.8,8.7H106.6z"></path>
<path class="st1" d="M153.9,104.4c-0.9-3.4-2.4-5.8-4.9-6.8v-0.2c3.3-1.2,6.4-4.3,6.4-8.8c0-3-1.1-5.4-3-7c-2.4-2-5.8-2.8-10.9-2.8&#xA;&#x9;c-3.7,0-7.3,0.3-9.7,0.7v34.7h6.4V99.8h3.2c3.7,0.1,5.3,1.6,6.3,6.2c1,4.4,1.8,7.3,2.3,8.3h6.6C155.9,112.9,155,108.8,153.9,104.4z&#xA;&#x9; M141.9,95.1h-3.8V83.9c0.6-0.2,1.9-0.3,4-0.3c4.2,0,6.9,1.8,6.9,5.6C149,92.8,146.2,95.1,141.9,95.1z"></path>
<path class="st2" d="M170.2,78.5h29.9c1.8,0,3.2,1.4,3.2,3.2v29.9c0,1.8-1.4,3.2-3.2,3.2h-29.9c-1.8,0-3.2-1.4-3.2-3.2V81.7&#xA;&#x9;C167,79.9,168.4,78.5,170.2,78.5z M213.8,78.5h29.9c1.8,0,3.2,1.4,3.2,3.2v29.9c0,1.8-1.4,3.2-3.2,3.2h-29.9c-1.8,0-3.2-1.4-3.2-3.2&#xA;&#x9;V81.7C210.6,79.9,212,78.5,213.8,78.5z M257.4,78.5h29.9c1.8,0,3.2,1.4,3.2,3.2v29.9c0,1.8-1.4,3.2-3.2,3.2h-29.9&#xA;&#x9;c-1.8,0-3.2-1.4-3.2-3.2V81.7C254.2,79.9,255.6,78.5,257.4,78.5z"></path>
</svg>