<svg xmlns="http://www.w3.org/2000/svg" width="80" height="80" viewBox="0 0 80 80">
  <g id="Gruppe_293" data-name="Gruppe 293" transform="translate(9393 18689)">
    <circle id="Ellipse_39" data-name="Ellipse 39" cx="40" cy="40" r="40" transform="translate(-9393 -18689)" fill="#9fb2a1"></circle>
    <g id="Gruppe_279" data-name="Gruppe 279" transform="translate(-11144.186 -20013.963)">
      <g id="Gruppe_278" data-name="Gruppe 278" transform="translate(1762.174 1349.986)">
        <path id="Pfad_204" data-name="Pfad 204" d="M1772.924,1372.318c-.48,1.741-.517,1.752-2.327,1.752-2.1,0-4.195-.019-6.292.009h-.018a1.15,1.15,0,0,1-1.13-1.419l5.131-21.3a1.72,1.72,0,0,1,1.963-1.343,55.528,55.528,0,0,1,6.826,2.073.906.906,0,0,1,.5,1.071" transform="translate(-1763.124 -1349.986)" fill="#ffe800"></path>
        <path id="Pfad_205" data-name="Pfad 205" d="M1862.186,1421.247a5.676,5.676,0,0,1-3.852-1.106q-5.349-4.076-10.619-8.256a29.843,29.843,0,0,1-2.764-2.7.819.819,0,0,1-.117-.693c1.283-4.739,2.481-9.144,3.7-13.9.039-.182.276-.455.426-.459,1.443-.032,2.888-.016,4.332-.011a.359.359,0,0,1,.129.051c-.617.843-1.265,1.649-1.823,2.513a8.691,8.691,0,0,0-1.519,4.06,3.022,3.022,0,0,0,2.2,3.235,5.936,5.936,0,0,0,6.7-1.921,1.73,1.73,0,0,1,1.152-.634,3.95,3.95,0,0,0,1.365-.537c.429-.239.739-.362,1.2.022,3.579,2.981,7.212,5.9,10.764,8.909a21.462,21.462,0,0,1,2.7,2.983,2.886,2.886,0,0,1,.508,1.431,1.193,1.193,0,0,1-.833,1.3,1.229,1.229,0,0,1-1.494-.332q-3.256-3.32-6.581-6.572a1.651,1.651,0,0,0-1.137-.5,1.585,1.585,0,0,0-.985.74,1.075,1.075,0,0,0,.333,1.346q2.762,2.753,5.516,5.514c.422.421.856.831,1.27,1.232a2.076,2.076,0,0,1-3.3.733q-2.86-2.859-5.719-5.719a1.179,1.179,0,0,0-1.241-.4,1.214,1.214,0,0,0-.89.964,1.289,1.289,0,0,0,.506,1.217c1.637,1.631,3.276,3.26,4.9,4.907.23.234.689.381.516.864a1.709,1.709,0,0,1-2.949.7c-1.5-1.552-3.039-3.061-4.567-4.583a1.146,1.146,0,0,0-1.251-.363,1.033,1.033,0,0,0-.819.936,1.89,1.89,0,0,0,.443,1.163c1.1,1.182,2.27,2.3,3.413,3.449C1861.9,1420.932,1861.985,1421.032,1862.186,1421.247Z" transform="translate(-1832.198 -1387.305)" fill="#ffe800"></path>
        <path id="Pfad_206" data-name="Pfad 206" d="M2049.107,1390.526a.824.824,0,0,1-.758,1.113h-.015q-3.465.018-6.931,0a1.571,1.571,0,0,1-1.526-1.173,141.258,141.258,0,0,0-5.159-14.895c-.6-1.533-1.324-3.02-2.025-4.514-.366-.781-.043-1.429.891-1.7,1.858-.546,3.73-1.107,5.625-1.5a1.266,1.266,0,0,1,1.414.744C2042.857,1373.781,2047.382,1385.878,2049.107,1390.526Z" transform="translate(-1990.965 -1365.078)" fill="#ffe800"></path>
        <path id="Pfad_207" data-name="Pfad 207" d="M1922.321,1398.771a2.644,2.644,0,0,1-.386-.288,62.735,62.735,0,0,0-8.217-7.5c-1.9-1.565-3.74-3.207-5.607-4.815a2.043,2.043,0,0,0-2.032-.444c-.547.17-1.049.476-1.591.666-.557.195-1.155.279-1.7.493a3.247,3.247,0,0,0-1.019.662c-.458.433-.807.988-1.287,1.389a2.94,2.94,0,0,1-3.4.3.769.769,0,0,1-.384-.6,7.6,7.6,0,0,1,.6-2.075,16.044,16.044,0,0,1,6.182-6.228c1.757-1.042,3.586-.723,5.391-.041,2.422.916,4.85,1.815,7.263,2.751a1.143,1.143,0,0,1,.546.6c1.031,2.543,2.071,5.083,3.04,7.65.881,2.334,1.679,4.7,2.511,7.051A4.015,4.015,0,0,1,1922.321,1398.771Z" transform="translate(-1876.078 -1375.076)" fill="#ffe800"></path>
      </g>
      <path id="Pfad_208" data-name="Pfad 208" d="M1762,1502.44" transform="translate(0 -128.925)" fill="none" stroke="#ffe800" stroke-miterlimit="10" stroke-width="1"></path>
    </g>
  </g>
</svg>