<svg xmlns="http://www.w3.org/2000/svg" width="210mm" height="28mm" viewBox="0 0 595.28 79.37">
  <g id="Wortmarke">
    <g>
      <path d="M557,144.06h1.05c2.25,0,4.39-.18,5.66-.32l8.66,15h7.74l-9.57-16.57c2.42-1.41,6.6-5.53,6.6-10.83,0-11.21-9.49-12.26-16.82-12.26h-10v39.66H557Zm0-18.86h4.73c5.71,0,8.69,1.81,8.69,6.5,0,3-3.24,6.55-9.16,6.55H557Z" transform="translate(-113.39 -99.21)"></path>
      <path d="M685.55,144.06h1.05c2.25,0,4.39-.18,5.66-.32l8.66,15h7.74l-9.57-16.57c2.42-1.41,6.6-5.53,6.6-10.83,0-11.21-9.49-12.26-16.82-12.26h-10v39.66h6.71Zm0-18.86h4.73c5.71,0,8.69,1.81,8.69,6.5,0,3-3.24,6.55-9.16,6.55h-4.26Z" transform="translate(-113.39 -99.21)"></path>
      <path d="M462.56,158.73V119.07h12.2c8,0,14.67,2.57,14.67,9.59,0,5.41-3.51,7.49-5.86,8.54,3.82.94,8.1,3.51,8.1,10.32s-5.42,11.21-14.92,11.21ZM475.24,135c4.4,0,7.12-1.21,7.12-4.88,0-4-2.67-4.92-6.34-4.92h-6.76V135ZM478,152.66c4.4,0,6.59-2.15,6.59-5.82,0-4.06-2.19-6.13-6.8-6.13h-8.49v11.95Z" transform="translate(-113.39 -99.21)"></path>
      <path d="M331.65,158.73V143.32l-14-24.25h7.74l9.72,16.83,9.5-16.83h7.75l-14,24.25v15.41Z" transform="translate(-113.39 -99.21)"></path>
      <path d="M266.52,158.74l-3.13-20.88-12.95,22.41-12.95-22.4-3.14,20.87h-7.18L233.75,118l16.66,28.85L267.13,118l6.57,40.78Z" transform="translate(-113.39 -99.21)"></path>
      <path d="M406.72,144.06h1c2.25,0,4.4-.18,5.67-.32l8.65,15h7.75l-9.57-16.57c2.42-1.41,6.59-5.53,6.59-10.83,0-11.21-9.48-12.26-16.82-12.26H400v39.66h6.7Zm0-18.86h4.74c5.71,0,8.69,1.81,8.69,6.5,0,3-3.24,6.55-9.16,6.55h-4.27Z" transform="translate(-113.39 -99.21)"></path>
      <path d="M612.46,143.59v-5.71h17.19c-.16,15.46-9.64,21.8-19.44,21.8-12,0-21.43-9.12-21.43-20.59a20.89,20.89,0,0,1,21.32-20.91c9.59,0,14.94,5,15.25,5.29l-3.4,5c-.27-.36-4.46-4.24-11.74-4.24-8.65,0-14.3,6.5-14.3,14.88a14.41,14.41,0,0,0,14.35,14.46c6.76,0,11.9-4.24,12.37-10Z" transform="translate(-113.39 -99.21)"></path>
      <path d="M285.73,158.74V119.07h23.5v6.1H292.45v9.45h13.42v6.1H292.45v11.92H311v6.1Z" transform="translate(-113.39 -99.21)"></path>
      <path d="M529.06,119.07V140.5c0,9.36-1.58,13.1-8.57,13.1s-10.08-3.74-10.08-13.1V119.07H503.7v25.1c0,10.32,6.55,15.51,16.79,15.51s15.28-5.19,15.28-15.51v-25.1Z" transform="translate(-113.39 -99.21)"></path>
      <path d="M362.33,158.74V119.07h23.5v6.1H369.06v9.45h13.41v6.1H369.06v11.92h18.5v6.1Z" transform="translate(-113.39 -99.21)"></path>
      <path d="M641.6,158.74V119.07h23.5v6.1H648.33v9.45h13.41v6.1H648.33v11.92h18.51v6.1Z" transform="translate(-113.39 -99.21)"></path>
    </g>
  </g>
  <g id="Raute">
    <g>
      <polygon points="30.51 72.08 6.35 65.61 16.56 47.92 14.14 43.74 0 68.24 33.47 77.2 30.51 72.08"></polygon>
      <path d="M194.51,110.08,154,99.21l-40.56,10.87L153,178.58l41.56-11.13L178,138.76Zm-6.35,2.63-12.63,21.87L158.28,104.7Zm0,52.11-29.88,8,14.84-25.69L170.7,143,154,172l-19.17-33.21,16.75-29-.61-1.06-4.27,1.15-14.29,24.75-12.63-21.87,33.21-8.9Z" transform="translate(-113.39 -99.21)"></path>
    </g>
  </g>
</svg>