<?xml version="1.0"?>
<svg xmlns="http://www.w3.org/2000/svg" version="1.1" viewBox="0 0 1457.54 590.89">
  <defs>
    
  </defs>
  <g id="Hintergrund">
    <rect class="cls-1" x="-.64" y="-6.65" width="1463.01" height="605.79"></rect>
  </g>
  <g id="LeBe_Solar_Energie" data-name="LeBe Solar Energie">
    <g>
      <g>
        <path class="cls-2" d="M363.16,121.38v36.23c85,17.2,149.19,92.47,149.19,182.46,0,102.65-83.51,186.16-186.16,186.16-53.38,0-101.54-22.61-135.52-58.72h-45.89c40.17,57.02,106.51,94.35,181.41,94.35,122.29,0,221.78-99.49,221.78-221.78,0-109.7-80.06-201.03-184.82-218.69Z"></path>
        <path class="cls-2" d="M209.81,261.4v170.52h117.8v-30.16h-83.36v-42.27h69.82v-29.92h-69.82v-38h83.36v-30.16h-117.8ZM82.75,359.02h38.71c17.1,0,26.36,9.02,26.36,21.85s-9.26,21.85-26.36,21.85h-38.71v-43.7ZM82.75,330.75v-40.37h33.49c17.34,0,27.07,6.89,27.07,20.19s-9.74,20.19-27.07,20.19h-33.49ZM49.26,431.93h74.57c36.1,0,57.71-17.81,57.71-47.74,0-20.66-11.87-35.15-28.97-40.85,11.64-4.99,23.75-16.15,23.75-36.57,0-29.21-19.71-45.36-56.76-45.36H49.26v170.52Z"></path>
        <path class="cls-2" d="M209.57,56.29v170.52h117.8v-30.16h-83.36v-42.27h69.82v-29.92h-69.82v-38h83.36v-30.16h-117.8ZM49.26,226.82h120.09v-30.16h-85.18V56.29h-34.91v170.52Z"></path>
      </g>
      <g>
        <g>
          <path class="cls-2" d="M644.54,177.31c10.69,20.42,29.93,32.3,52.01,32.3s39.19-10.93,39.19-30.4c0-20.66-19.71-24.22-45.6-30.4-26.84-6.41-53.44-13.77-53.44-45.84,0-29.92,25.89-49.4,58.19-49.4,29.69,0,51.06,14.25,61.27,33.49l-17.34,13.77c-8.79-16.39-22.33-27.55-44.41-27.55-20.66,0-35.62,11.4-35.62,27.79,0,18.05,15.91,21.85,39.9,27.55,28.26,6.65,59.38,12.59,59.38,48.69,0,31.83-28.26,52.01-61.99,52.01-29.45,0-57.71-14.73-69.35-37.76l17.81-14.25Z"></path>
          <path class="cls-2" d="M834.06,229.32c-33.96,0-57.71-26.12-57.71-64.6s23.75-64.6,57.71-64.6,57.71,26.12,57.71,64.6-23.75,64.6-57.71,64.6ZM834.06,211.04c21.85,0,36.1-18.05,36.1-46.31s-14.25-46.55-36.1-46.55-36.1,18.05-36.1,46.55,14.25,46.31,36.1,46.31Z"></path>
          <path class="cls-2" d="M940.22,226.71h-21.37V56.19h21.37v170.52Z"></path>
          <path class="cls-2" d="M966.11,193.23c0-24.7,19.24-34.91,47.03-40.61l30.16-6.18v-5.22c0-14.25-7.84-22.32-24.46-22.32-15.67,0-24.94,7.36-28.74,21.14l-20.19-5.22c5.94-20.19,24.23-34.67,49.64-34.67,27.79,0,44.89,13.54,44.89,40.14v60.56c0,8.08,4.99,10.69,13.3,8.79v17.1c-19,2.37-29.93-2.14-32.54-14.01-7.6,9.74-21.37,16.15-38.24,16.15-22.56,0-40.85-13.3-40.85-35.62ZM1043.29,163.06l-24.22,5.22c-19,3.8-31.83,9.03-31.83,23.99,0,12.11,8.79,19.24,22.32,19.24,18.29,0,33.72-11.16,33.72-27.07v-21.38Z"></path>
          <path class="cls-2" d="M1165.13,123.64c-3.56-.71-6.41-.95-10.45-.95-18.05,0-32.54,14.25-32.54,36.1v67.92h-21.38v-124.21h21.38v21.14c5.46-12.59,17.57-22.09,34.44-22.09,3.33,0,6.41.24,8.55.48v21.61Z"></path>
        </g>
        <g>
          <path class="cls-2" d="M755.93,261.39v19.95h-88.82v52.49h75.29v19.95h-75.29v58.19h88.82v19.95h-111.39v-170.52h111.39Z"></path>
          <path class="cls-2" d="M782.29,307.7h21.37v16.86c7.13-10.21,19.47-19.24,37.05-19.24,26.36,0,41.32,18.29,41.32,44.65v81.94h-21.37v-76.24c0-17.34-7.36-30.4-25.89-30.4-15.44,0-31.11,11.87-31.11,32.54v74.1h-21.37v-124.21Z"></path>
          <path class="cls-2" d="M907.68,369.92c0-37.05,23.51-64.6,57.24-64.6s52.96,26.36,52.96,60.8v7.12h-89.77c1.19,26.12,16.15,42.75,37.76,42.75,16.63,0,28.5-9.02,32.3-23.75l18.76,6.65c-7.6,22.09-26.36,35.62-51.06,35.62-34.44,0-58.19-26.36-58.19-64.6ZM929.3,356.86h66.97c-.47-17.58-9.98-33.25-31.59-33.25-18.05,0-31.59,12.11-35.39,33.25Z"></path>
          <path class="cls-2" d="M1108.84,328.84c-3.56-.71-6.41-.95-10.45-.95-18.05,0-32.54,14.25-32.54,36.1v67.92h-21.38v-124.21h21.38v21.14c5.46-12.59,17.57-22.09,34.44-22.09,3.33,0,6.41.24,8.55.48v21.61Z"></path>
          <path class="cls-2" d="M1175.58,477.27c-27.31,0-47.26-12.59-54.15-35.39l19.95-7.6c4.04,15.91,16.86,25.18,34.2,25.18,21.85,0,36.34-11.16,36.34-37.05v-14.01c-6.65,12.11-20.66,20.66-38,20.66-33.96,0-53.91-28.02-53.91-61.99s19.95-61.75,53.91-61.75c17.1,0,31.35,8.55,38,20.66v-18.29h21.38v113.05c0,36.34-23.99,56.52-57.71,56.52ZM1177.72,324.09c-22.56,0-36.34,16.86-36.34,42.99s13.77,43.23,36.34,43.23c17.81,0,34.44-13.3,34.44-40.61v-4.51c0-27.79-16.63-41.09-34.44-41.09Z"></path>
          <path class="cls-2" d="M1267.96,261.39h23.28v24.7h-23.28v-24.7ZM1290.29,431.91h-21.38v-124.21h21.38v124.21Z"></path>
          <path class="cls-2" d="M1317.36,369.92c0-37.05,23.51-64.6,57.24-64.6s52.96,26.36,52.96,60.8v7.12h-89.77c1.19,26.12,16.15,42.75,37.76,42.75,16.63,0,28.5-9.02,32.3-23.75l18.76,6.65c-7.6,22.09-26.36,35.62-51.06,35.62-34.44,0-58.19-26.36-58.19-64.6ZM1338.97,356.86h66.98c-.47-17.58-9.98-33.25-31.59-33.25-18.05,0-31.59,12.11-35.39,33.25Z"></path>
        </g>
      </g>
    </g>
  </g>
</svg>